PathFileType	3	(X/Y/Z)	C:\Users\hrist\Documents\PhD\NeuroM Model Experiments\Complete_Controller_Data_Collection\S2_M\LG_Walk_Slower\LG_Walk_Slower01.trc																																																																																																							
DataRate	CameraRate	NumFrames	NumMarkers	Units	OrigDataRate	OrigDataStartFrame	OrigNumFrames																																																																																																			
100	100	6	35	mm	100	492	481																																																																																																			
Frame#	Time	R.ASIS			L.ASIS			V.Sacral			R.Thigh.Upper			R.Knee.Med			R.Knee.Lat			R.Thigh.Rear			R.Thigh.Front			L.Thigh.Upper			L.Knee.Med			L.Knee.Lat			L.Thigh.Rear			L.Thigh.Front			R.Shank.Upper			R.Ankle.Med			R.Ankle.Lat			R.Shank.Front			R.Shank.Rear			L.Shank.Upper			L.Ankle.Med			L.Ankle.Lat			L.Shank.Front			L.Shank.Rear			R.Toe.Tip			R.Heel			R.Toe.Med			R.Toe.Lat			R.Midfoot.Lat			R.Midfoot.Sup			L.Heel			L.Toe.Tip			L.Toe.Med			L.Toe.Lat			L.Midfoot.Lat			L.Midfoot.Sup		
		X1	Y1	Z1	X2	Y2	Z2	X3	Y3	Z3	X4	Y4	Z4	X5	Y5	Z5	X6	Y6	Z6	X7	Y7	Z7	X8	Y8	Z8	X9	Y9	Z9	X10	Y10	Z10	X11	Y11	Z11	X12	Y12	Z12	X13	Y13	Z13	X14	Y14	Z14	X15	Y15	Z15	X16	Y16	Z16	X17	Y17	Z17	X18	Y18	Z18	X19	Y19	Z19	X20	Y20	Z20	X21	Y21	Z21	X22	Y22	Z22	X23	Y23	Z23	X24	Y24	Z24	X25	Y25	Z25	X26	Y26	Z26	X27	Y27	Z27	X28	Y28	Z28	X29	Y29	Z29	X30	Y30	Z30	X31	Y31	Z31	X32	Y32	Z32	X33	Y33	Z33	X34	Y34	Z34	X35	Y35	Z35
492	4.91	-86.7231991	973.8852383	-1099.192039	176.1753887	975.1861367	-1112.56635	31.86185021	1004.960986	-1293.258697	-156.0985751	746.1953833	-1135.58318	-1.254862196	496.9976667	-1046.203018	-137.756048	503.7493513	-1049.939489	-143.0722499	641.0062069	-1101.245697	-54.67351441	727.9428614	-1011.258059	216.5501355	795.5846915	-1228.726574	29.88427229	501.1954618	-1258.195507	158.1869257	487.8179224	-1271.571738	184.8248334	642.1394415	-1243.915584	138.8447919	694.2924232	-1114.012597	-139.0608769	456.5723382	-1035.879799	-52.30875095	112.669214	-890.4678956	-135.0631995	78.50646613	-914.1701067	-83.51449826	428.0242428	-958.9907496	-158.440004	373.7899543	-1018.422627	158.8820395	449.1644163	-1282.300934	17.37469598	85.62941258	-1367.136307	104.4237053	79.62091124	-1405.323829	105.7191631	398.4032972	-1236.829653	161.9952392	377.047516	-1300.776178	-98.92792808	123.483466	-722.3089529	-82.4997464	17.87854234	-957.5687798	-66.08225225	90.345382	-754.4749574	-174.0964445	81.80311199	-767.023251	-163.2031668	77.55504621	-809.1995175	-71.77447095	103.2275167	-794.4408576	44.65349838	35.75837179	-1465.983493	95.32173578	34.17170809	-1208.965473	50.5529446	24.87627912	-1249.561572	157.1273814	23.27603927	-1277.876394	143.2181645	37.26989389	-1314.11013	44.74075855	38.08031323	-1285.709617
493	4.92	-87.77164406	973.5743227	-1093.218162	175.1225369	974.4361255	-1107.72845	30.13478433	1004.731191	-1287.825757	-157.2984952	745.735954	-1130.465761	-2.128054449	496.1753933	-1043.07658	-138.5020585	502.8087275	-1046.384741	-143.9631937	640.2451619	-1096.675995	-55.05995188	726.295357	-1006.676455	215.2465483	795.124015	-1224.561741	28.53432103	501.0034559	-1255.634771	157.1046852	487.7147762	-1268.969575	183.6803007	641.8579946	-1240.542211	137.7244643	693.4838861	-1109.705653	-140.3696681	456.0858916	-1032.432014	-52.19163801	111.5287013	-887.9106518	-135.3758528	77.94951563	-912.471684	-83.88355538	427.269412	-955.5566564	-158.8761089	373.1746473	-1014.885235	157.9296489	448.9917645	-1279.765201	17.15344765	85.8687327	-1366.815249	104.2065087	80.14467248	-1404.676479	104.7844729	397.9956325	-1234.761721	160.9675038	377.0789201	-1298.736057	-99.41291856	119.0827601	-719.4797775	-82.19808071	18.38784654	-956.6094928	-66.55763607	86.45579927	-752.0362986	-174.6289348	78.43805809	-765.2339673	-163.4394987	74.86625359	-807.4644684	-72.03785941	100.087158	-791.6422458	44.57422715	36.14301777	-1465.858746	95.29996047	34.11782576	-1208.865181	50.55453805	24.78866995	-1249.500598	157.0790982	23.37691164	-1277.851719	143.1101148	37.32070433	-1314.009123	44.49533827	37.99970331	-1285.843791
494	4.93	-88.84818744	973.3111961	-1087.275287	174.0258387	973.6876639	-1102.804884	28.40930667	1004.533037	-1282.349904	-158.3248997	745.1869475	-1125.035687	-2.998445951	495.4780049	-1039.71149	-139.2226525	501.9640001	-1042.595654	-144.9446263	639.55784	-1092.025996	-55.56809927	724.7739342	-1002.0043	213.9291527	794.7012662	-1220.35694	27.26212012	500.7661036	-1252.931618	156.0047322	487.6250111	-1266.27033	182.5090979	641.5979621	-1237.075162	136.4996656	692.62966	-1105.618411	-141.1026275	455.488696	-1028.684299	-52.16455083	110.4154973	-885.4031782	-135.5277551	77.2466485	-910.6982901	-84.35137912	426.5153475	-952.0009695	-159.3437496	372.5512535	-1011.376501	156.932378	448.9542025	-1277.266324	16.91855979	86.1365811	-1366.437234	103.9962528	80.75301599	-1404.165907	103.835417	397.6222642	-1232.6001	159.9687154	377.1601789	-1296.711042	-100.0094706	114.9089054	-716.7679751	-81.90003212	18.87902562	-955.655341	-67.11458021	82.87454075	-749.7556054	-175.2916393	75.15506886	-763.5789518	-163.7388619	72.30568766	-805.8096993	-72.3712403	97.13776224	-789.0116778	44.45616309	36.63953618	-1465.707449	95.28608561	34.06174233	-1208.761609	50.53721599	24.70220906	-1249.412105	157.0073691	23.44936495	-1277.82078	142.9944223	37.37404365	-1313.906316	44.33268091	37.97295514	-1285.789425
495	4.94	-89.98028252	973.1530327	-1081.373621	172.852931	972.9688382	-1097.786638	26.69449041	1004.378194	-1276.82892	-159.358553	744.761825	-1119.550712	-3.874421123	494.9537323	-1036.029839	-139.9964612	501.3473319	-1038.528845	-146.0430779	639.0099432	-1087.249725	-56.29144056	723.4779958	-997.2077647	212.5976391	794.3291209	-1216.070056	26.07722494	500.4950495	-1250.034311	154.8813531	487.576895	-1263.442613	181.2970899	641.3753013	-1233.477403	135.1454921	691.7143376	-1101.903923	-141.5496039	454.8772568	-1024.690912	-52.25730881	109.3503453	-883.0367348	-135.4802021	76.36782593	-908.8560175	-84.98474108	425.7821455	-948.2866693	-159.8657332	371.9482903	-1007.919361	155.8903707	449.0607623	-1274.74628	16.64924513	86.46452584	-1365.990003	103.7790588	81.47772887	-1403.77528	102.8769605	397.316278	-1230.251791	159.0107708	377.3356485	-1294.670682	-100.6912097	111.0914905	-714.2804113	-81.62472107	19.32677564	-954.7242128	-67.71525302	79.71354404	-747.7258004	-175.9684848	72.01818461	-762.084643	-164.0589105	69.88749618	-804.2509598	-72.7584969	94.46509561	-786.6486422	44.274849	37.28612873	-1465.511734	95.28069246	34.00931565	-1208.64975	50.49374004	24.61474636	-1249.286929	156.8988122	23.49151677	-1277.784794	142.8714673	37.44941689	-1313.789521	44.24432363	37.99456511	-1285.56405
496	4.95	-91.17686349	973.1367446	-1075.497777	171.5936496	972.3178333	-1092.686197	24.99774903	1004.269005	-1271.280355	-160.6772531	744.7080087	-1114.373635	-4.77181029	494.62193	-1032.044187	-140.9080386	501.0036038	-1034.287249	-147.269294	638.6525864	-1082.344391	-57.30149361	722.4703448	-992.279792	211.2519842	794.0052595	-1211.675269	25.06672774	500.1704775	-1246.840254	153.7275375	487.599435	-1260.488815	180.046088	641.1979192	-1229.755287	133.7117406	690.8030201	-1098.394856	-142.1887719	454.3869814	-1020.652504	-52.45255071	108.3477768	-880.8679083	-135.3346025	75.40281563	-907.0242304	-85.8122283	425.1086133	-944.4364339	-160.4533969	371.4134141	-1004.51585	154.8085426	449.2310571	-1272.103159	16.34092096	86.8557103	-1365.479985	103.5193775	82.29975616	-1403.383452	101.9140724	397.1082231	-1227.626145	158.0662499	377.6264664	-1292.536961	-101.3338778	107.5999948	-712.0446964	-81.3959277	19.73760859	-953.8423488	-68.25581181	76.86580608	-745.9443162	-176.4588869	69.01684448	-760.6917683	-164.334519	67.55182083	-802.7805511	-73.1180661	92.00999842	-784.5485349	44.03081425	38.07773581	-1465.27023	95.27733142	33.9700002	-1208.528662	50.43357869	24.51943008	-1249.132017	156.7613232	23.53718732	-1277.746733	142.7435884	37.58312924	-1313.638329	44.1786171	38.03218882	-1285.272993
497	4.96	-92.43733968	973.2588997	-1069.647406	170.2550027	971.7432499	-1087.49973	23.32564633	1004.207809	-1265.726775	-162.310847	744.98506	-1109.429583	-5.708404044	494.5299201	-1027.748417	-141.9469867	500.8452795	-1029.984702	-148.6103667	638.5131362	-1077.334074	-58.6298032	721.7829084	-987.219793	209.8841869	793.7215853	-1207.178541	24.22032766	499.7996861	-1243.33221	152.5304024	487.6932412	-1257.405206	178.7639986	641.0616237	-1225.91942	132.2567431	689.992822	-1094.700974	-143.0469824	454.0345161	-1016.655007	-52.71545312	107.423732	-878.8319967	-135.2601434	74.5006377	-905.313362	-86.80989162	424.5340581	-940.4870097	-161.1049755	370.9831515	-1001.146175	153.6792136	449.3974109	-1269.280858	16.00067753	87.29984482	-1364.912253	103.1904886	83.19669961	-1402.901385	100.9301799	396.9868536	-1224.751915	157.1010547	378.0199345	-1290.246314	-101.8569846	104.3193052	-710.0120823	-81.21963669	20.15679511	-953.0294779	-68.69188556	74.16805669	-744.3527084	-176.7776593	66.08351116	-759.3764814	-164.5717287	65.26167246	-801.4163348	-73.39607643	89.66365839	-782.6448478	43.74983103	39.03211405	-1464.998593	95.26899526	33.946993	-1208.4059	50.36945758	24.40362611	-1248.961233	156.616866	23.61637957	-1277.688712	142.6041315	37.80333569	-1313.434014	44.10637681	38.06219424	-1284.954994
